<svg width="414" height="414" viewBox="0 0 414 414" fill="none" xmlns="http://www.w3.org/2000/svg">
<g clip-path="url(#clip0_5_31)">
<path d="M414 207C414.072 255.863 396.788 303.163 365.23 340.468C364.084 341.829 362.916 343.169 361.727 344.501C347.735 360.237 331.436 373.759 313.387 384.605C309.247 387.09 305.016 389.432 300.694 391.631C300.258 391.853 299.813 392.075 299.377 392.29C298.854 392.555 298.324 392.813 297.794 393.071C286.858 398.423 275.467 402.791 263.757 406.121C262.539 406.465 261.319 406.799 260.097 407.124C244.692 411.2 228.867 413.481 212.938 413.921C212.107 413.943 211.29 413.957 210.503 413.971C210.223 413.979 209.951 413.986 209.679 413.986C208.784 413.993 207.895 414 207 414C190.214 414.012 173.488 411.985 157.191 407.962C155.558 407.561 153.932 407.138 152.313 406.694C143.787 404.366 135.42 401.488 127.266 398.077C122.968 396.287 118.747 394.355 114.602 392.283C113.664 391.81 112.726 391.337 111.802 390.85C111.408 390.657 111.021 390.449 110.634 390.249C88.5433 378.589 68.7328 363.046 52.1511 344.365C51.0051 343.083 49.8806 341.779 48.7704 340.468C30.5004 318.807 16.8723 293.625 8.72991 266.482C0.587542 239.34 -1.89564 210.814 1.43418 182.673C4.764 154.532 13.8359 127.374 28.088 102.881C42.3401 78.3882 61.469 57.0822 84.2899 40.2826C85.4645 39.4159 86.6464 38.5564 87.8425 37.7184C88.0789 37.5537 88.3152 37.3889 88.5516 37.2242C109.569 22.5021 133.159 11.8489 158.101 5.81604C159.519 5.46507 160.937 5.1356 162.37 4.82761C189.385 -1.08178 217.305 -1.57114 244.511 3.38791C245.936 3.65293 247.361 3.92511 248.78 4.21878C273.498 9.28886 297.074 18.8622 318.329 32.461C318.802 32.7619 319.274 33.0627 319.747 33.3778C320.7 33.9938 321.652 34.6241 322.591 35.2616C350.747 54.1912 373.814 79.7585 389.755 109.709C405.696 139.659 414.023 173.072 414 207V207Z" fill="#ECE2E2"/>
<path d="M154.713 314.088L88.5516 319.962L87.8425 320.026V37.7183C88.0789 37.5536 88.3152 37.3888 88.5516 37.2241C102.34 27.5794 117.256 19.6561 132.967 13.6304L136.348 60.2591L136.656 64.528L140.001 110.77L141.032 124.995L154.591 312.441L154.713 314.088Z" fill="#CCCCCC"/>
<path d="M318.329 32.461C318.801 32.7618 319.274 33.0626 319.747 33.3778V320.026L318.329 319.897L252.884 314.088L253.006 312.441L266.564 124.995L267.596 110.77L270.941 64.5281L271.249 60.2591L274.794 11.3599C290.084 16.6597 304.696 23.7423 318.329 32.461V32.461Z" fill="#CCCCCC"/>
<path d="M318.329 32.4609V323.937C318.329 329.531 314.475 334.079 309.734 334.079H97.1468C93.2217 334.079 89.8911 330.956 88.8812 326.695C88.6607 325.792 88.5501 324.866 88.5517 323.937V37.2241C88.3153 37.3889 88.079 37.5536 87.8426 37.7183C86.6464 38.5563 85.4646 39.4158 84.2899 40.2825V323.937C84.2265 328.186 85.8132 332.294 88.7164 335.397C90.2388 336.992 92.1643 338.145 94.289 338.735C95.2204 338.988 96.1816 339.116 97.1468 339.115H309.734C310.701 339.116 311.665 338.988 312.599 338.735C318.315 337.195 322.591 331.15 322.591 323.937V35.2615C321.652 34.624 320.7 33.9937 319.747 33.3778C319.274 33.0626 318.802 32.7618 318.329 32.4609Z" fill="#CCCCCC"/>
<path d="M320.461 60.262H86.4209V64.5302H320.461V60.262Z" fill="#CCCCCC"/>
<path d="M158.101 5.81607C159.519 5.4651 160.937 5.13563 162.37 4.82764V120.726H158.101V5.81607Z" fill="#CCCCCC"/>
<path d="M244.511 3.38794C245.936 3.65296 247.361 3.92514 248.78 4.21881V120.726H244.511V3.38794Z" fill="#CCCCCC"/>
<path d="M347.137 312.441H66.8559C61.7611 312.441 56.8749 314.465 53.2723 318.068C49.6697 321.67 47.6458 326.556 47.6458 331.651C47.6458 336.746 49.6697 341.632 53.2723 345.235C56.8749 348.838 61.7611 350.861 66.8559 350.861H347.137C349.865 350.862 352.562 350.28 355.047 349.155C357.532 348.03 359.749 346.387 361.548 344.336C362.363 343.409 363.087 342.407 363.711 341.342C364.194 340.526 364.613 339.674 364.965 338.792C366.135 335.878 366.572 332.721 366.238 329.599C365.904 326.476 364.81 323.483 363.05 320.882C361.29 318.281 358.919 316.151 356.145 314.679C353.37 313.208 350.277 312.439 347.137 312.441V312.441Z" fill="#CCCCCC"/>
<path d="M320.461 110.769H87.8435V124.997H320.461V110.769Z" fill="#CCCCCC"/>
<path d="M202.018 106.501H206.287C207.314 106.501 208.332 106.703 209.281 107.097C210.231 107.49 211.093 108.066 211.82 108.793C212.546 109.52 213.123 110.382 213.516 111.332C213.909 112.281 214.112 113.298 214.112 114.326V114.326H194.193C194.193 112.251 195.018 110.26 196.485 108.793C197.953 107.325 199.943 106.501 202.018 106.501H202.018Z" fill="#CCCCCC"/>
<path d="M365.23 340.469C359.007 347.841 352.277 354.77 345.088 361.204H68.9116C61.7228 354.77 54.9926 347.841 48.7703 340.469H365.23Z" fill="#3F3D56"/>
<path d="M230.121 268.649H183.621C183.371 268.646 183.121 268.685 182.883 268.763C182.379 268.919 181.937 269.233 181.624 269.659C181.311 270.084 181.142 270.599 181.143 271.127V344.587H232.606V271.127C232.606 270.801 232.541 270.478 232.416 270.177C232.291 269.876 232.108 269.603 231.877 269.373C231.646 269.143 231.372 268.96 231.071 268.836C230.77 268.712 230.447 268.648 230.121 268.649ZM212.522 304.892C212.524 306.083 212.131 307.242 211.405 308.187C210.712 309.103 209.749 309.78 208.651 310.12C207.553 310.46 206.377 310.448 205.287 310.084C204.196 309.72 203.248 309.023 202.575 308.092C201.902 307.16 201.538 306.041 201.535 304.892V296.368C201.548 294.92 202.133 293.536 203.162 292.516C204.191 291.497 205.58 290.925 207.029 290.925C208.477 290.925 209.867 291.497 210.895 292.516C211.924 293.536 212.509 294.92 212.522 296.368V304.892Z" fill="#2F2E41"/>
<path d="M180.985 342.238V349.321C180.985 349.689 181.131 350.041 181.39 350.301C181.649 350.562 182 350.709 182.368 350.711H231.382C231.749 350.708 232.099 350.56 232.358 350.3C232.617 350.04 232.763 349.688 232.764 349.321V342.238H180.985Z" fill="#3F3D56"/>
<path d="M307.119 154.011H108.356C106.649 154.013 105.011 154.692 103.803 155.899C102.595 157.106 101.914 158.742 101.91 160.45V294.577C101.911 296.287 102.591 297.926 103.8 299.134C105.008 300.343 106.647 301.022 108.356 301.024H307.119C308.829 301.022 310.467 300.343 311.676 299.134C312.885 297.926 313.564 296.287 313.566 294.577V160.45C313.562 158.742 312.881 157.106 311.673 155.899C310.464 154.692 308.827 154.013 307.119 154.011V154.011Z" fill="#3F3D56"/>
<path d="M305.458 158.667H110.011C109.097 158.668 108.22 159.033 107.574 159.68C106.929 160.328 106.566 161.205 106.566 162.119V292.923C106.567 293.836 106.931 294.711 107.576 295.357C108.222 296.003 109.098 296.367 110.011 296.368H305.458C306.371 296.367 307.246 296.003 307.892 295.357C308.538 294.711 308.901 293.836 308.903 292.923V162.119C308.903 161.205 308.54 160.328 307.894 159.68C307.248 159.033 306.372 158.668 305.458 158.667V158.667Z" fill="#6C63FF"/>
<path d="M269.487 350.596L267.682 342.023C267.607 341.673 267.446 341.348 267.213 341.076C266.98 340.805 266.684 340.596 266.349 340.468C266.108 340.374 265.85 340.325 265.59 340.325H152.915C152.655 340.325 152.397 340.374 152.156 340.468C151.822 340.596 151.525 340.805 151.292 341.076C151.059 341.348 150.898 341.673 150.823 342.023L149.018 350.596C148.953 350.908 148.958 351.229 149.033 351.539C149.108 351.848 149.25 352.136 149.451 352.383C149.651 352.63 149.904 352.829 150.191 352.966C150.478 353.103 150.792 353.175 151.11 353.175H267.388C267.707 353.177 268.022 353.106 268.31 352.968C268.598 352.83 268.851 352.629 269.05 352.38C269.25 352.134 269.394 351.846 269.469 351.537C269.545 351.229 269.551 350.907 269.487 350.596V350.596Z" fill="#2F2E41"/>
<path d="M156.972 341.869H154.09C153.897 341.869 153.741 342.026 153.741 342.219V343.669C153.741 343.862 153.897 344.018 154.09 344.018H156.972C157.165 344.018 157.322 343.862 157.322 343.669V342.219C157.322 342.026 157.165 341.869 156.972 341.869Z" fill="#3F3D56"/>
<path d="M164.135 341.869H161.253C161.06 341.869 160.904 342.026 160.904 342.219V343.669C160.904 343.862 161.06 344.018 161.253 344.018H164.135C164.328 344.018 164.485 343.862 164.485 343.669V342.219C164.485 342.026 164.328 341.869 164.135 341.869Z" fill="#3F3D56"/>
<path d="M171.298 341.869H168.416C168.223 341.869 168.066 342.026 168.066 342.219V343.669C168.066 343.862 168.223 344.018 168.416 344.018H171.298C171.491 344.018 171.647 343.862 171.647 343.669V342.219C171.647 342.026 171.491 341.869 171.298 341.869Z" fill="#3F3D56"/>
<path d="M178.46 341.869H175.578C175.385 341.869 175.229 342.026 175.229 342.219V343.669C175.229 343.862 175.385 344.018 175.578 344.018H178.46C178.654 344.018 178.81 343.862 178.81 343.669V342.219C178.81 342.026 178.654 341.869 178.46 341.869Z" fill="#3F3D56"/>
<path d="M185.623 341.869H182.741C182.548 341.869 182.391 342.026 182.391 342.219V343.669C182.391 343.862 182.548 344.018 182.741 344.018H185.623C185.816 344.018 185.973 343.862 185.973 343.669V342.219C185.973 342.026 185.816 341.869 185.623 341.869Z" fill="#3F3D56"/>
<path d="M192.786 341.869H189.904C189.711 341.869 189.554 342.026 189.554 342.219V343.669C189.554 343.862 189.711 344.018 189.904 344.018H192.786C192.979 344.018 193.135 343.862 193.135 343.669V342.219C193.135 342.026 192.979 341.869 192.786 341.869Z" fill="#3F3D56"/>
<path d="M199.948 341.869H197.066C196.873 341.869 196.717 342.026 196.717 342.219V343.669C196.717 343.862 196.873 344.018 197.066 344.018H199.948C200.141 344.018 200.298 343.862 200.298 343.669V342.219C200.298 342.026 200.141 341.869 199.948 341.869Z" fill="#3F3D56"/>
<path d="M207.111 341.869H204.229C204.036 341.869 203.879 342.026 203.879 342.219V343.669C203.879 343.862 204.036 344.018 204.229 344.018H207.111C207.304 344.018 207.46 343.862 207.46 343.669V342.219C207.46 342.026 207.304 341.869 207.111 341.869Z" fill="#3F3D56"/>
<path d="M214.274 341.869H211.392C211.199 341.869 211.042 342.026 211.042 342.219V343.669C211.042 343.862 211.199 344.018 211.392 344.018H214.274C214.467 344.018 214.623 343.862 214.623 343.669V342.219C214.623 342.026 214.467 341.869 214.274 341.869Z" fill="#3F3D56"/>
<path d="M221.436 341.869H218.554C218.361 341.869 218.205 342.026 218.205 342.219V343.669C218.205 343.862 218.361 344.018 218.554 344.018H221.436C221.629 344.018 221.786 343.862 221.786 343.669V342.219C221.786 342.026 221.629 341.869 221.436 341.869Z" fill="#3F3D56"/>
<path d="M228.599 341.869H225.717C225.524 341.869 225.367 342.026 225.367 342.219V343.669C225.367 343.862 225.524 344.018 225.717 344.018H228.599C228.792 344.018 228.949 343.862 228.949 343.669V342.219C228.949 342.026 228.792 341.869 228.599 341.869Z" fill="#3F3D56"/>
<path d="M235.761 341.869H232.879C232.686 341.869 232.53 342.026 232.53 342.219V343.669C232.53 343.862 232.686 344.018 232.879 344.018H235.761C235.955 344.018 236.111 343.862 236.111 343.669V342.219C236.111 342.026 235.955 341.869 235.761 341.869Z" fill="#3F3D56"/>
<path d="M242.924 341.869H240.042C239.849 341.869 239.692 342.026 239.692 342.219V343.669C239.692 343.862 239.849 344.018 240.042 344.018H242.924C243.117 344.018 243.274 343.862 243.274 343.669V342.219C243.274 342.026 243.117 341.869 242.924 341.869Z" fill="#3F3D56"/>
<path d="M250.087 341.869H247.205C247.012 341.869 246.855 342.026 246.855 342.219V343.669C246.855 343.862 247.012 344.018 247.205 344.018H250.087C250.28 344.018 250.436 343.862 250.436 343.669V342.219C250.436 342.026 250.28 341.869 250.087 341.869Z" fill="#3F3D56"/>
<path d="M257.249 341.869H254.367C254.174 341.869 254.018 342.026 254.018 342.219V343.669C254.018 343.862 254.174 344.018 254.367 344.018H257.249C257.442 344.018 257.599 343.862 257.599 343.669V342.219C257.599 342.026 257.442 341.869 257.249 341.869Z" fill="#3F3D56"/>
<path d="M264.412 341.869H261.53C261.337 341.869 261.18 342.026 261.18 342.219V343.669C261.18 343.862 261.337 344.018 261.53 344.018H264.412C264.605 344.018 264.761 343.862 264.761 343.669V342.219C264.761 342.026 264.605 341.869 264.412 341.869Z" fill="#3F3D56"/>
<path d="M156.888 345.451H154.006C153.813 345.451 153.656 345.607 153.656 345.8V347.25C153.656 347.443 153.813 347.599 154.006 347.599H156.888C157.081 347.599 157.238 347.443 157.238 347.25V345.8C157.238 345.607 157.081 345.451 156.888 345.451Z" fill="#3F3D56"/>
<path d="M164.05 345.451H161.169C160.975 345.451 160.819 345.607 160.819 345.8V347.25C160.819 347.443 160.975 347.599 161.169 347.599H164.05C164.244 347.599 164.4 347.443 164.4 347.25V345.8C164.4 345.607 164.244 345.451 164.05 345.451Z" fill="#3F3D56"/>
<path d="M171.213 345.451H168.331C168.138 345.451 167.981 345.607 167.981 345.8V347.25C167.981 347.443 168.138 347.599 168.331 347.599H171.213C171.406 347.599 171.563 347.443 171.563 347.25V345.8C171.563 345.607 171.406 345.451 171.213 345.451Z" fill="#3F3D56"/>
<path d="M178.376 345.451H175.494C175.301 345.451 175.144 345.607 175.144 345.8V347.25C175.144 347.443 175.301 347.599 175.494 347.599H178.376C178.569 347.599 178.725 347.443 178.725 347.25V345.8C178.725 345.607 178.569 345.451 178.376 345.451Z" fill="#3F3D56"/>
<path d="M185.538 345.451H182.656C182.463 345.451 182.307 345.607 182.307 345.8V347.25C182.307 347.443 182.463 347.599 182.656 347.599H185.538C185.731 347.599 185.888 347.443 185.888 347.25V345.8C185.888 345.607 185.731 345.451 185.538 345.451Z" fill="#3F3D56"/>
<path d="M192.701 345.451H189.819C189.626 345.451 189.469 345.607 189.469 345.8V347.25C189.469 347.443 189.626 347.599 189.819 347.599H192.701C192.894 347.599 193.051 347.443 193.051 347.25V345.8C193.051 345.607 192.894 345.451 192.701 345.451Z" fill="#3F3D56"/>
<path d="M199.864 345.451H196.982C196.789 345.451 196.632 345.607 196.632 345.8V347.25C196.632 347.443 196.789 347.599 196.982 347.599H199.864C200.057 347.599 200.213 347.443 200.213 347.25V345.8C200.213 345.607 200.057 345.451 199.864 345.451Z" fill="#3F3D56"/>
<path d="M207.026 345.451H204.144C203.951 345.451 203.795 345.607 203.795 345.8V347.25C203.795 347.443 203.951 347.599 204.144 347.599H207.026C207.219 347.599 207.376 347.443 207.376 347.25V345.8C207.376 345.607 207.219 345.451 207.026 345.451Z" fill="#3F3D56"/>
<path d="M214.189 345.451H211.307C211.114 345.451 210.957 345.607 210.957 345.8V347.25C210.957 347.443 211.114 347.599 211.307 347.599H214.189C214.382 347.599 214.539 347.443 214.539 347.25V345.8C214.539 345.607 214.382 345.451 214.189 345.451Z" fill="#3F3D56"/>
<path d="M221.352 345.451H218.47C218.276 345.451 218.12 345.607 218.12 345.8V347.25C218.12 347.443 218.276 347.599 218.47 347.599H221.352C221.545 347.599 221.701 347.443 221.701 347.25V345.8C221.701 345.607 221.545 345.451 221.352 345.451Z" fill="#3F3D56"/>
<path d="M228.514 345.451H225.632C225.439 345.451 225.282 345.607 225.282 345.8V347.25C225.282 347.443 225.439 347.599 225.632 347.599H228.514C228.707 347.599 228.864 347.443 228.864 347.25V345.8C228.864 345.607 228.707 345.451 228.514 345.451Z" fill="#3F3D56"/>
<path d="M235.677 345.451H232.795C232.602 345.451 232.445 345.607 232.445 345.8V347.25C232.445 347.443 232.602 347.599 232.795 347.599H235.677C235.87 347.599 236.026 347.443 236.026 347.25V345.8C236.026 345.607 235.87 345.451 235.677 345.451Z" fill="#3F3D56"/>
<path d="M242.839 345.451H239.957C239.764 345.451 239.608 345.607 239.608 345.8V347.25C239.608 347.443 239.764 347.599 239.957 347.599H242.839C243.032 347.599 243.189 347.443 243.189 347.25V345.8C243.189 345.607 243.032 345.451 242.839 345.451Z" fill="#3F3D56"/>
<path d="M250.002 345.451H247.12C246.927 345.451 246.771 345.607 246.771 345.8V347.25C246.771 347.443 246.927 347.599 247.12 347.599H250.002C250.195 347.599 250.352 347.443 250.352 347.25V345.8C250.352 345.607 250.195 345.451 250.002 345.451Z" fill="#3F3D56"/>
<path d="M257.165 345.451H254.283C254.09 345.451 253.933 345.607 253.933 345.8V347.25C253.933 347.443 254.09 347.599 254.283 347.599H257.165C257.358 347.599 257.514 347.443 257.514 347.25V345.8C257.514 345.607 257.358 345.451 257.165 345.451Z" fill="#3F3D56"/>
<path d="M264.327 345.451H261.445C261.252 345.451 261.096 345.607 261.096 345.8V347.25C261.096 347.443 261.252 347.599 261.445 347.599H264.327C264.52 347.599 264.677 347.443 264.677 347.25V345.8C264.677 345.607 264.52 345.451 264.327 345.451Z" fill="#3F3D56"/>
<path d="M216.338 349.748H188.387C188.193 349.748 188.037 349.905 188.037 350.098V351.547C188.037 351.741 188.193 351.897 188.387 351.897H216.338C216.531 351.897 216.687 351.741 216.687 351.547V350.098C216.687 349.905 216.531 349.748 216.338 349.748Z" fill="#3F3D56"/>
<path d="M295.636 176.685H112.758C112.567 176.681 112.387 176.603 112.254 176.467C112.121 176.331 112.046 176.148 112.046 175.958C112.046 175.768 112.121 175.585 112.254 175.45C112.387 175.314 112.567 175.235 112.758 175.231H295.636C295.826 175.235 296.007 175.314 296.14 175.45C296.273 175.585 296.348 175.768 296.348 175.958C296.348 176.148 296.273 176.331 296.14 176.467C296.007 176.603 295.826 176.681 295.636 176.685V176.685Z" fill="#3F3D56"/>
<path d="M125.206 171.518C127.56 171.518 129.468 169.567 129.468 167.161C129.468 164.754 127.56 162.803 125.206 162.803C122.853 162.803 120.944 164.754 120.944 167.161C120.944 169.567 122.853 171.518 125.206 171.518Z" fill="#3F3D56"/>
<path d="M139.93 171.518C142.284 171.518 144.192 169.567 144.192 167.161C144.192 164.754 142.284 162.803 139.93 162.803C137.576 162.803 135.668 164.754 135.668 167.161C135.668 169.567 137.576 171.518 139.93 171.518Z" fill="#3F3D56"/>
<path d="M154.653 171.518C157.007 171.518 158.916 169.567 158.916 167.161C158.916 164.754 157.007 162.803 154.653 162.803C152.3 162.803 150.391 164.754 150.391 167.161C150.391 169.567 152.3 171.518 154.653 171.518Z" fill="#3F3D56"/>
<path d="M286.77 163.881H276.313C276.106 163.886 275.909 163.971 275.765 164.119C275.62 164.267 275.54 164.466 275.54 164.672C275.54 164.879 275.62 165.078 275.765 165.226C275.909 165.373 276.106 165.459 276.313 165.464H286.77C286.978 165.461 287.177 165.376 287.323 165.228C287.469 165.08 287.551 164.88 287.551 164.672C287.551 164.464 287.469 164.265 287.323 164.117C287.177 163.968 286.978 163.884 286.77 163.881Z" fill="#3F3D56"/>
<path d="M286.77 166.854H276.313C276.106 166.858 275.909 166.943 275.764 167.091C275.62 167.239 275.539 167.438 275.539 167.645C275.539 167.852 275.62 168.051 275.764 168.199C275.909 168.346 276.106 168.432 276.313 168.436H286.77C286.978 168.434 287.177 168.349 287.324 168.201C287.47 168.053 287.552 167.853 287.552 167.645C287.552 167.437 287.47 167.237 287.324 167.089C287.177 166.941 286.978 166.856 286.77 166.854V166.854Z" fill="#3F3D56"/>
<path d="M286.77 169.826H276.313C276.106 169.831 275.909 169.916 275.765 170.064C275.62 170.212 275.54 170.411 275.54 170.617C275.54 170.824 275.62 171.023 275.765 171.171C275.909 171.319 276.106 171.404 276.313 171.409H286.77C286.978 171.406 287.177 171.321 287.323 171.173C287.469 171.025 287.551 170.825 287.551 170.617C287.551 170.409 287.469 170.21 287.323 170.062C287.177 169.914 286.978 169.829 286.77 169.826V169.826Z" fill="#3F3D56"/>
<path d="M128.527 193.587H124.769C123.63 193.587 122.706 194.51 122.706 195.649C122.706 196.789 123.63 197.712 124.769 197.712H128.527C129.666 197.712 130.589 196.789 130.589 195.649C130.589 194.51 129.666 193.587 128.527 193.587Z" fill="#E6E6E6"/>
<path d="M171.502 193.587H167.744C166.605 193.587 165.682 194.51 165.682 195.649C165.682 196.789 166.605 197.712 167.744 197.712H171.502C172.641 197.712 173.565 196.789 173.565 195.649C173.565 194.51 172.641 193.587 171.502 193.587Z" fill="#E6E6E6"/>
<path d="M183.679 193.587H179.921C178.782 193.587 177.858 194.51 177.858 195.649C177.858 196.789 178.782 197.712 179.921 197.712H183.679C184.818 197.712 185.741 196.789 185.741 195.649C185.741 194.51 184.818 193.587 183.679 193.587Z" fill="#E6E6E6"/>
<path d="M159.813 193.243H136.458C135.319 193.243 134.396 194.166 134.396 195.306C134.396 196.445 135.319 197.369 136.458 197.369H159.813C160.952 197.369 161.875 196.445 161.875 195.306C161.875 194.166 160.952 193.243 159.813 193.243Z" fill="#E6E6E6"/>
<path d="M217.114 193.243H193.759C192.62 193.243 191.697 194.166 191.697 195.306C191.697 196.445 192.62 197.369 193.759 197.369H217.114C218.253 197.369 219.176 196.445 219.176 195.306C219.176 194.166 218.253 193.243 217.114 193.243Z" fill="#E6E6E6"/>
<path d="M139.987 202.898H136.229C135.09 202.898 134.166 203.822 134.166 204.961C134.166 206.1 135.09 207.024 136.229 207.024H139.987C141.126 207.024 142.05 206.1 142.05 204.961C142.05 203.822 141.126 202.898 139.987 202.898Z" fill="#E6E6E6"/>
<path d="M182.962 202.898H179.205C178.065 202.898 177.142 203.822 177.142 204.961C177.142 206.1 178.065 207.024 179.205 207.024H182.962C184.102 207.024 185.025 206.1 185.025 204.961C185.025 203.822 184.102 202.898 182.962 202.898Z" fill="#E6E6E6"/>
<path d="M195.139 202.898H191.381C190.242 202.898 189.318 203.822 189.318 204.961C189.318 206.1 190.242 207.024 191.381 207.024H195.139C196.278 207.024 197.202 206.1 197.202 204.961C197.202 203.822 196.278 202.898 195.139 202.898Z" fill="#E6E6E6"/>
<path d="M171.273 202.554H147.919C146.779 202.554 145.856 203.478 145.856 204.617C145.856 205.756 146.779 206.68 147.919 206.68H171.273C172.412 206.68 173.336 205.756 173.336 204.617C173.336 203.478 172.412 202.554 171.273 202.554Z" fill="#E6E6E6"/>
<path d="M228.574 202.554H205.22C204.08 202.554 203.157 203.478 203.157 204.617C203.157 205.756 204.08 206.68 205.22 206.68H228.574C229.713 206.68 230.637 205.756 230.637 204.617C230.637 203.478 229.713 202.554 228.574 202.554Z" fill="#E6E6E6"/>
<path d="M151.447 212.209H147.689C146.55 212.209 145.626 213.133 145.626 214.272C145.626 215.412 146.55 216.335 147.689 216.335H151.447C152.586 216.335 153.51 215.412 153.51 214.272C153.51 213.133 152.586 212.209 151.447 212.209Z" fill="#E6E6E6"/>
<path d="M194.422 212.209H190.665C189.526 212.209 188.602 213.133 188.602 214.272C188.602 215.412 189.526 216.335 190.665 216.335H194.422C195.562 216.335 196.485 215.412 196.485 214.272C196.485 213.133 195.562 212.209 194.422 212.209Z" fill="#E6E6E6"/>
<path d="M206.599 212.209H202.841C201.702 212.209 200.779 213.133 200.779 214.272C200.779 215.412 201.702 216.335 202.841 216.335H206.599C207.738 216.335 208.662 215.412 208.662 214.272C208.662 213.133 207.738 212.209 206.599 212.209Z" fill="#E6E6E6"/>
<path d="M182.733 211.866H159.379C158.239 211.866 157.316 212.789 157.316 213.929C157.316 215.068 158.239 215.991 159.379 215.991H182.733C183.872 215.991 184.796 215.068 184.796 213.929C184.796 212.789 183.872 211.866 182.733 211.866Z" fill="#E6E6E6"/>
<path d="M240.034 211.866H216.68C215.54 211.866 214.617 212.789 214.617 213.929C214.617 215.068 215.54 215.991 216.68 215.991H240.034C241.173 215.991 242.097 215.068 242.097 213.929C242.097 212.789 241.173 211.866 240.034 211.866Z" fill="#E6E6E6"/>
<path d="M162.907 221.521H159.149C158.01 221.521 157.087 222.445 157.087 223.584C157.087 224.723 158.01 225.647 159.149 225.647H162.907C164.046 225.647 164.97 224.723 164.97 223.584C164.97 222.445 164.046 221.521 162.907 221.521Z" fill="#E6E6E6"/>
<path d="M205.883 221.521H202.125C200.986 221.521 200.062 222.445 200.062 223.584C200.062 224.723 200.986 225.647 202.125 225.647H205.883C207.022 225.647 207.945 224.723 207.945 223.584C207.945 222.445 207.022 221.521 205.883 221.521Z" fill="#E6E6E6"/>
<path d="M218.059 221.521H214.302C213.162 221.521 212.239 222.445 212.239 223.584C212.239 224.723 213.162 225.647 214.302 225.647H218.059C219.198 225.647 220.122 224.723 220.122 223.584C220.122 222.445 219.198 221.521 218.059 221.521Z" fill="#E6E6E6"/>
<path d="M194.193 221.177H170.839C169.7 221.177 168.776 222.101 168.776 223.24C168.776 224.379 169.7 225.303 170.839 225.303H194.193C195.332 225.303 196.256 224.379 196.256 223.24C196.256 222.101 195.332 221.177 194.193 221.177Z" fill="#E6E6E6"/>
<path d="M171.502 258.547H167.744C166.605 258.547 165.682 259.471 165.682 260.61C165.682 261.749 166.605 262.673 167.744 262.673H171.502C172.641 262.673 173.565 261.749 173.565 260.61C173.565 259.471 172.641 258.547 171.502 258.547Z" fill="#E6E6E6"/>
<path d="M183.679 258.547H179.921C178.782 258.547 177.858 259.471 177.858 260.61C177.858 261.749 178.782 262.673 179.921 262.673H183.679C184.818 262.673 185.741 261.749 185.741 260.61C185.741 259.471 184.818 258.547 183.679 258.547Z" fill="#E6E6E6"/>
<path d="M217.114 258.891H193.759C192.62 258.891 191.697 259.815 191.697 260.954C191.697 262.093 192.62 263.017 193.759 263.017H217.114C218.253 263.017 219.176 262.093 219.176 260.954C219.176 259.815 218.253 258.891 217.114 258.891Z" fill="#E6E6E6"/>
<path d="M128.527 258.547H124.769C123.63 258.547 122.706 259.471 122.706 260.61C122.706 261.749 123.63 262.673 124.769 262.673H128.527C129.666 262.673 130.589 261.749 130.589 260.61C130.589 259.471 129.666 258.547 128.527 258.547Z" fill="#E6E6E6"/>
<path d="M159.813 258.891H136.458C135.319 258.891 134.396 259.815 134.396 260.954C134.396 262.093 135.319 263.017 136.458 263.017H159.813C160.952 263.017 161.875 262.093 161.875 260.954C161.875 259.815 160.952 258.891 159.813 258.891Z" fill="#E6E6E6"/>
<path d="M139.987 249.236H136.229C135.09 249.236 134.166 250.159 134.166 251.299C134.166 252.438 135.09 253.361 136.229 253.361H139.987C141.126 253.361 142.05 252.438 142.05 251.299C142.05 250.159 141.126 249.236 139.987 249.236Z" fill="#E6E6E6"/>
<path d="M182.962 249.236H179.205C178.065 249.236 177.142 250.159 177.142 251.299C177.142 252.438 178.065 253.361 179.205 253.361H182.962C184.102 253.361 185.025 252.438 185.025 251.299C185.025 250.159 184.102 249.236 182.962 249.236Z" fill="#E6E6E6"/>
<path d="M195.139 249.236H191.381C190.242 249.236 189.318 250.159 189.318 251.299C189.318 252.438 190.242 253.361 191.381 253.361H195.139C196.278 253.361 197.202 252.438 197.202 251.299C197.202 250.159 196.278 249.236 195.139 249.236Z" fill="#E6E6E6"/>
<path d="M171.273 249.58H147.919C146.779 249.58 145.856 250.503 145.856 251.642C145.856 252.782 146.779 253.705 147.919 253.705H171.273C172.412 253.705 173.336 252.782 173.336 251.642C173.336 250.503 172.412 249.58 171.273 249.58Z" fill="#E6E6E6"/>
<path d="M151.447 239.924H147.689C146.55 239.924 145.626 240.848 145.626 241.987C145.626 243.126 146.55 244.05 147.689 244.05H151.447C152.586 244.05 153.51 243.126 153.51 241.987C153.51 240.848 152.586 239.924 151.447 239.924Z" fill="#E6E6E6"/>
<path d="M194.422 239.924H190.665C189.526 239.924 188.602 240.848 188.602 241.987C188.602 243.126 189.526 244.05 190.665 244.05H194.422C195.562 244.05 196.485 243.126 196.485 241.987C196.485 240.848 195.562 239.924 194.422 239.924Z" fill="#E6E6E6"/>
<path d="M206.599 239.924H202.841C201.702 239.924 200.779 240.848 200.779 241.987C200.779 243.126 201.702 244.05 202.841 244.05H206.599C207.738 244.05 208.662 243.126 208.662 241.987C208.662 240.848 207.738 239.924 206.599 239.924Z" fill="#E6E6E6"/>
<path d="M182.733 240.268H159.379C158.239 240.268 157.316 241.192 157.316 242.331C157.316 243.47 158.239 244.394 159.379 244.394H182.733C183.872 244.394 184.796 243.47 184.796 242.331C184.796 241.192 183.872 240.268 182.733 240.268Z" fill="#E6E6E6"/>
<path d="M162.907 230.613H159.149C158.01 230.613 157.087 231.536 157.087 232.676C157.087 233.815 158.01 234.738 159.149 234.738H162.907C164.046 234.738 164.97 233.815 164.97 232.676C164.97 231.536 164.046 230.613 162.907 230.613Z" fill="#E6E6E6"/>
<path d="M205.883 230.613H202.125C200.986 230.613 200.062 231.536 200.062 232.676C200.062 233.815 200.986 234.738 202.125 234.738H205.883C207.022 234.738 207.945 233.815 207.945 232.676C207.945 231.536 207.022 230.613 205.883 230.613Z" fill="#E6E6E6"/>
<path d="M218.059 230.613H214.302C213.162 230.613 212.239 231.536 212.239 232.676C212.239 233.815 213.162 234.738 214.302 234.738H218.059C219.198 234.738 220.122 233.815 220.122 232.676C220.122 231.536 219.198 230.613 218.059 230.613Z" fill="#E6E6E6"/>
<path d="M194.193 230.957H170.839C169.7 230.957 168.776 231.88 168.776 233.02C168.776 234.159 169.7 235.082 170.839 235.082H194.193C195.332 235.082 196.256 234.159 196.256 233.02C196.256 231.88 195.332 230.957 194.193 230.957Z" fill="#E6E6E6"/>
<path opacity="0.2" d="M147.779 340.437L153.865 316.949L159.24 337.217L147.779 340.437Z" fill="black"/>
<path d="M309.733 325.133C307.556 355.13 309.812 368.338 297.793 393.071C286.858 398.423 275.467 402.791 263.757 406.121C262.539 406.465 261.319 406.799 260.096 407.124C244.691 411.2 228.867 413.481 212.938 413.921C212.107 413.943 211.29 413.957 210.502 413.971C210.223 413.979 209.951 413.986 209.679 413.986C208.783 413.993 207.895 414 207 414C190.214 414.012 173.488 411.985 157.191 407.962C155.558 407.561 153.932 407.138 152.313 406.694C143.787 404.366 135.42 401.488 127.265 398.077C122.968 396.287 118.747 394.355 114.602 392.283C113.664 391.81 112.725 391.337 111.801 390.85C107.053 382.499 104.352 372.342 104.295 360.137C107.583 339.108 302.471 306.997 309.733 325.133Z" fill="#2F2E41"/>
<path opacity="0.2" d="M309.728 330.27C309.839 328.413 309.963 326.495 310.108 324.497C302.846 306.362 107.958 338.472 104.67 359.501C104.679 361.429 104.761 363.3 104.9 365.127C112.862 344.371 298.008 313.853 309.728 330.27Z" fill="black"/>
<path d="M99.474 291.55C99.6717 290.929 99.7342 290.274 99.6573 289.627C99.5804 288.981 99.3659 288.358 99.0282 287.801C98.6905 287.245 98.2375 286.767 97.6996 286.4C97.1617 286.033 96.5515 285.785 95.91 285.674C95.6724 285.626 95.4311 285.599 95.1889 285.593L65.9937 285.204C65.3389 285.205 64.6916 285.344 64.0936 285.611C63.4956 285.878 62.9601 286.267 62.5217 286.753C62.1119 286.671 61.6945 286.633 61.2766 286.64C60.3679 286.628 59.4659 286.796 58.622 287.133C57.7781 287.47 57.0088 287.97 56.3582 288.605C55.7075 289.239 55.1882 289.995 54.8298 290.83C54.4715 291.666 54.2812 292.563 54.2697 293.472C54.2582 294.38 54.4258 295.282 54.763 296.126C55.1001 296.97 55.6001 297.74 56.2345 298.39C57.5158 299.704 59.2666 300.455 61.1018 300.479C62.1476 300.487 63.182 300.261 64.1292 299.817L67.1721 328.494C67.4422 329.435 68.0094 330.263 68.789 330.855C69.5686 331.446 70.5187 331.77 71.4973 331.776L90.477 332.028C91.4485 332.033 92.3966 331.731 93.1853 331.163C93.974 330.596 94.5626 329.794 94.8667 328.871L99.474 291.55ZM61.1376 298.498C59.8273 298.48 58.5775 297.943 57.6624 297.005C56.7472 296.067 56.2414 294.805 56.2557 293.494C56.27 292.184 56.8034 290.933 57.7389 290.015C58.6744 289.097 59.9356 288.588 61.246 288.599C61.3387 288.598 61.421 288.641 61.5137 288.64C61.3158 289.435 61.3313 290.269 61.5585 291.057L63.5543 297.875C62.8204 298.298 61.9849 298.514 61.1376 298.498Z" fill="#2F2E41"/>
<path d="M111.983 240.189C112.253 243.788 106.089 247.927 97.8325 249.57C90.2512 251.122 83.4574 250.042 81.5452 247.208C81.9295 246.98 82.347 246.813 82.7826 246.713L111.263 240.279C111.5 240.228 111.74 240.198 111.983 240.189V240.189Z" fill="#3F3D56"/>
<path d="M78.6927 313.293C78.6541 313.284 78.6174 313.269 78.584 313.247L74.4299 310.602C74.3797 310.57 74.3382 310.526 74.3092 310.474C74.2802 310.422 74.2647 310.364 74.2639 310.304C74.2631 310.245 74.2772 310.186 74.3048 310.133C74.3325 310.081 74.3728 310.036 74.4222 310.003L78.67 307.144C78.709 307.118 78.7528 307.099 78.799 307.09C78.8452 307.08 78.8928 307.08 78.939 307.089C78.9853 307.098 79.0294 307.116 79.0687 307.142C79.108 307.168 79.1418 307.201 79.1682 307.24C79.1945 307.279 79.2128 307.323 79.2222 307.369C79.2315 307.416 79.2316 307.463 79.2224 307.509C79.2133 307.556 79.1951 307.6 79.169 307.639C79.1428 307.678 79.1091 307.712 79.0699 307.738L75.2759 310.291L78.9685 312.643C79.04 312.689 79.093 312.758 79.1182 312.839C79.1433 312.92 79.139 313.007 79.1059 313.085C79.0728 313.163 79.0131 313.227 78.9375 313.265C78.8618 313.303 78.7751 313.313 78.6927 313.293V313.293Z" fill="#6C63FF"/>
<path d="M85.2045 313.512C85.1351 313.496 85.0723 313.459 85.0241 313.406C84.9759 313.354 84.9445 313.288 84.9339 313.217C84.9233 313.147 84.934 313.075 84.9647 313.01C84.9954 312.946 85.0446 312.892 85.106 312.856L88.8769 310.631L85.1719 307.95C85.1338 307.922 85.1014 307.888 85.0767 307.848C85.0519 307.807 85.0354 307.763 85.0279 307.716C85.0204 307.67 85.0221 307.623 85.033 307.577C85.0439 307.531 85.0637 307.488 85.0913 307.45C85.1189 307.412 85.1537 307.379 85.1938 307.355C85.2339 307.33 85.2785 307.313 85.3249 307.306C85.3714 307.299 85.4189 307.301 85.4646 307.312C85.5104 307.323 85.5536 307.342 85.5916 307.37L89.7397 310.372C89.7879 310.407 89.8267 310.453 89.8525 310.506C89.8784 310.56 89.8904 310.619 89.8877 310.678C89.8849 310.738 89.8674 310.796 89.8367 310.847C89.8061 310.897 89.7632 310.94 89.712 310.97L85.4701 313.473C85.3901 313.52 85.2948 313.534 85.2045 313.512V313.512Z" fill="#6C63FF"/>
</g>
<defs>
<clipPath id="clip0_5_31">
<rect width="414" height="414" fill="white"/>
</clipPath>
</defs>
</svg>
