<svg width="415" height="376" viewBox="0 0 415 376" fill="none" xmlns="http://www.w3.org/2000/svg">
<g clip-path="url(#clip0_12_2)">
<path d="M456.3 323.4H-43.7002V323.6H456.3V323.4Z" fill="#1E3851"/>
<path d="M156.8 332.9H130.8V333.1H156.8V332.9Z" fill="#1E3851"/>
<path d="M62.8998 330.2H8.7998V330.4H62.8998V330.2Z" fill="#1E3851"/>
<path d="M129.8 342.2H103.5V342.4H129.8V342.2Z" fill="#1E3851"/>
<path d="M253.4 340.5H214.6V340.7H253.4V340.5Z" fill="#1E3851"/>
<path d="M273 340.5H262.3V340.7H273V340.5Z" fill="#1E3851"/>
<path d="M406.3 336.3H351.7V336.5H406.3V336.3Z" fill="#1E3851"/>
<path d="M337.338 314.477H383.038V188.977H337.338V314.477Z" fill="#102D44"/>
<path d="M138.051 323.423L374.251 323.423V314.523H138.051V323.423Z" fill="#102D44"/>
<path d="M337.4 189.1H129.3V314.6H337.4V189.1Z" fill="#1E3851"/>
<path d="M338.2 197.5H129.3V243.4H338.2V197.5Z" fill="#0D2438"/>
<path d="M338.2 251.8H129.3V297.7H338.2V251.8Z" fill="#0D2438"/>
<path d="M337.383 243.517H345.283V197.617H337.383V243.517Z" fill="#102D44"/>
<path d="M337.383 297.821H345.283V251.921H337.383V297.821Z" fill="#102D44"/>
<path d="M123.217 189.084L337.417 189.084V181.384L123.217 181.384V189.084Z" fill="#102D44"/>
<path d="M389.4 181.3H337.4V189H389.4V181.3Z" fill="#102D44"/>
<path d="M284.484 157.712H391.884V22.7117H284.484V157.712Z" fill="#1E3851"/>
<path d="M260.752 157.712L387.752 157.712V22.7117L260.752 22.7117V157.712Z" fill="#102D44"/>
<path d="M271.37 33.2818V147.082H377.07V33.2818H271.37Z" fill="#1E3851"/>
<path d="M336 102.5L356.2 93.0999V87.1999L336 77.8999V84.9999L348.3 90.2999L336 95.4999V102.5Z" fill="#102D44"/>
<path d="M322.8 75.0999H319.1L325.6 105.2H329.3L322.8 75.0999Z" fill="#102D44"/>
<path d="M312.6 95.4998L300.3 90.1998L312.6 84.8998V77.7998L292.4 87.1998V93.0998L312.6 102.5V95.4998Z" fill="#102D44"/>
<path d="M73.6367 323.42H80.6367L80.6367 94.2204H73.6367L73.6367 323.42Z" fill="#1E3851"/>
<path d="M72.0997 321.8L71.8997 320.8C71.9997 320.8 73.7997 320.4 75.1997 317.9C76.9997 314.7 78.0997 307.8 73.0997 293.3C65.2997 271 69.8997 253 79.2997 217.1C80.8997 210.9 82.7997 203.8 84.6997 196.1C91.8997 167.4 85.1997 149.7 79.8997 135.4C75.7997 124.3 72.4997 115.5 76.6997 105.4L77.5997 105.8C73.5997 115.6 76.7997 124.2 80.7997 135.1C86.1997 149.5 92.8997 167.5 85.5997 196.4C83.6997 204.1 81.7997 211.1 80.1997 217.4C70.8997 253.1 66.2997 271 73.9997 293C79.1997 307.9 77.9997 315.1 75.9997 318.5C74.3997 321.3 72.1997 321.8 72.0997 321.8Z" fill="#1E3851"/>
<path d="M64.2998 323.4H89.7998L82.6998 319.2H71.3998L64.2998 323.4Z" fill="#1E3851"/>
<path d="M26.5996 123.4H127.5L116.4 38.7H37.6996L26.5996 123.4Z" fill="#1E3851"/>
<path d="M176.2 137.4H230.1L223 181.3H183.3L176.2 137.4Z" fill="#1E3851"/>
<path d="M197.8 151.7C212.5 146.4 223.7 138.4 211.1 122.3C198.5 106.2 179 106.2 165.9 113.4C149.2 122.5 152.5 148.9 152.5 148.9C152.5 148.9 183.2 157 197.8 151.7Z" fill="#102D44"/>
<path d="M212.1 137C200.9 129.4 192.9 120.5 205.9 111.2C218.9 101.9 235 106.6 244.7 115.3C257 126.4 249.9 145.8 249.9 145.8C249.9 145.8 223.3 144.6 212.1 137Z" fill="#1E3851"/>
<path d="M192.3 117.6C205.4 116.8 216.5 113.4 210.2 99.1C204 84.9 188.2 80.9 175.9 83.3C160.2 86.4 156.5 106.1 156.5 106.1C156.5 106.1 179.2 118.4 192.3 117.6Z" fill="#213D54"/>
<path d="M208.8 109.2C197.9 105.7 189.3 100.4 197.6 89.6999C205.9 78.9999 220.1 79.0999 230 83.7999C242.6 89.7999 241.5 107.3 241.5 107.3C241.5 107.3 219.8 112.7 208.8 109.2Z" fill="#264056"/>
<path d="M188.3 91C199.2 94.6 209.2 95.4 208.8 81.8C208.4 68.3 196.9 60 186.1 57.9C172.4 55.4 163 70.1 163 70.1C163 70.1 177.4 87.4 188.3 91Z" fill="#1E3851"/>
<path d="M215.999 85.2C208.199 85.7 201.399 84.6 203.999 75.7C206.599 66.8 215.599 63.3 222.999 63.8C232.499 64.4 236.199 75.7 236.199 75.7C236.199 75.7 223.799 84.6 215.999 85.2Z" fill="#102D44"/>
<path d="M206.3 368.5C313.388 368.5 400.2 363.441 400.2 357.2C400.2 350.959 313.388 345.9 206.3 345.9C99.2119 345.9 12.3999 350.959 12.3999 357.2C12.3999 363.441 99.2119 368.5 206.3 368.5Z" fill="#244159"/>
<path d="M375.6 192.1H35.7998V204.3H375.6V192.1Z" fill="#407BFF"/>
<path opacity="0.3" d="M126.7 192.1H35.7998V204.3H126.7V192.1Z" fill="white"/>
<path d="M128.2 204.3H120.3L124.5 357.1H128.2H132L136.1 204.3H128.2Z" fill="#407BFF"/>
<path opacity="0.3" d="M124.5 357.1H128.2V207.6L120.4 209L124.5 357.1Z" fill="white"/>
<path d="M53.2998 204.3H45.2998L49.4998 357.1H53.2998H56.9998L61.1998 204.3H53.2998Z" fill="#407BFF"/>
<path opacity="0.3" d="M49.5 357.1H53.3V207.6L45.5 209L49.5 357.1Z" fill="white"/>
<path d="M358.2 204.3H350.3L354.4 357.1H358.2H362L366.1 204.3H358.2Z" fill="#407BFF"/>
<path opacity="0.3" d="M354.4 357.1H358.2V207.6L350.4 209L354.4 357.1Z" fill="white"/>
<path d="M283.2 204.3H275.3L279.4 357.1H283.2H287L291.1 204.3H283.2Z" fill="#407BFF"/>
<path opacity="0.3" d="M279.4 357.1H283.2V207.6L275.4 209L279.4 357.1Z" fill="white"/>
<path d="M197.1 126.8H116.3C113.4 126.8 111.5 129.2 112.1 132.1L122.9 183.4C123.5 186.3 126.4 188.7 129.3 188.7H210.1C213 188.7 214.9 186.3 214.3 183.4L203.5 132.1C202.9 129.2 200 126.8 197.1 126.8Z" fill="#263238"/>
<path d="M130 185.8C128.1 185.8 126.1 184.1 125.7 182.2L114.9 130.8C114.7 130 114.9 129.3 115.3 128.8C115.7 128.3 116.3 128.1 117 128.1H197.8C199.7 128.1 201.7 129.8 202.1 131.7L212.9 183C213.1 183.8 212.9 184.5 212.5 185C212.1 185.5 211.5 185.7 210.8 185.7H130V185.8Z" fill="#1E3851"/>
<path opacity="0.4" d="M191 181.7L180.8 133C180.5 131.8 181.5 130.6 182.7 130.6H195.8C196.7 130.6 197.5 131.3 197.7 132.2L207.9 180.9C208.2 182.1 207.2 183.3 206 183.3H192.9C192 183.3 191.2 182.6 191 181.7Z" fill="#407BFF"/>
<path d="M121.7 134.9L121.2 132.8H137.4L137.9 134.9H121.7Z" fill="#407BFF"/>
<path d="M129.1 140.1L128.7 138H157.1L157.5 140.1H129.1Z" fill="#102D44"/>
<path d="M130.6 145.3L130.2 143.2H162L162.5 145.3H130.6Z" fill="#102D44"/>
<path d="M132.1 150.6L131.7 148.5H157.3L157.8 150.6H132.1Z" fill="#102D44"/>
<path d="M126.6 159.1L126.1 157H136.4L136.8 159.1H126.6Z" fill="#407BFF"/>
<path d="M134.1 164.3L133.6 162.2H146.1L146.5 164.3H134.1Z" fill="#102D44"/>
<path d="M149.5 164.3L149.1 162.2H161.6L162 164.3H149.5Z" fill="#102D44"/>
<path d="M135.6 169.5L135.1 167.4H177.3L177.8 169.5H135.6Z" fill="#102D44"/>
<path d="M137 174.8L136.6 172.7H168.8L169.2 174.8H137Z" fill="#102D44"/>
<path d="M234.9 188.4H128.5C125.6 188.4 123.7 190 124.3 192.1H241.2C240.6 190.1 237.8 188.4 234.9 188.4Z" fill="#263238"/>
<path opacity="0.1" d="M93.4998 113.8L83.2998 65.2C82.9998 64 83.9998 62.8 85.1998 62.8H167.8C168.7 62.8 169.5 63.5001 169.7 64.4001L180 113C180.3 114.2 179.3 115.4 178.1 115.4H95.4998C94.4998 115.4 93.6998 114.8 93.4998 113.8Z" fill="#407BFF"/>
<path d="M122.9 64.4H105.6L105.2 62.5H122.5L122.9 64.4Z" fill="#407BFF"/>
<path opacity="0.4" d="M120.1 67.4H113.1L112.7 65.5H119.7L120.1 67.4Z" fill="#407BFF"/>
<path opacity="0.4" d="M131.7 67.4H120.9L120.6 65.5H131.3L131.7 67.4Z" fill="#407BFF"/>
<path opacity="0.4" d="M136.3 70.4H113.7L113.4 68.5H135.9L136.3 70.4Z" fill="#407BFF"/>
<path opacity="0.4" d="M133.5 73.3H114.4L114 71.5H133.1L133.5 73.3Z" fill="#407BFF"/>
<path opacity="0.4" d="M146.1 104.9H134L134.4 106.8H146.5L146.1 104.9Z" fill="#407BFF"/>
<path d="M131 100.9H113.2L112.8 99H130.6L131 100.9Z" fill="#407BFF"/>
<path opacity="0.4" d="M138.1 107.9H121.6L122 109.8H138.5L138.1 107.9Z" fill="#407BFF"/>
<path opacity="0.4" d="M133.1 104.9H121L121.3 106.8H133.5L133.1 104.9Z" fill="#407BFF"/>
<path opacity="0.4" d="M144.6 102H120.3L120.7 103.8H145L144.6 102Z" fill="#407BFF"/>
<path d="M122.3 50.5H102.7L102.3 48.7H121.9L122.3 50.5Z" fill="#407BFF"/>
<path opacity="0.4" d="M132 57.5999H110.3L110.7 59.4999H132.4L132 57.5999Z" fill="#407BFF"/>
<path opacity="0.4" d="M127.7 54.5999H109.7L110.1 56.4999H128L127.7 54.5999Z" fill="#407BFF"/>
<path opacity="0.4" d="M128.8 51.5999H109.1L109.5 53.4999H129.2L128.8 51.5999Z" fill="#407BFF"/>
<path d="M122.1 78.2H108.4L108 76.3H121.7L122.1 78.2Z" fill="#407BFF"/>
<path opacity="0.4" d="M143.5 85.2H116.8L117.2 87.1H143.9L143.5 85.2Z" fill="#407BFF"/>
<path opacity="0.4" d="M127.3 82.3H116.2L116.6 84.1H127.7L127.3 82.3Z" fill="#407BFF"/>
<path opacity="0.4" d="M139.2 82.3H128.2L128.6 84.1H139.6L139.2 82.3Z" fill="#407BFF"/>
<path opacity="0.4" d="M139.9 79.3H115.6L116 81.1H140.3L139.9 79.3Z" fill="#407BFF"/>
<path opacity="0.4" d="M139.9 94.2H118.7L119.1 96H140.3L139.9 94.2Z" fill="#407BFF"/>
<path opacity="0.4" d="M124.2 91.2H118.1L118.5 93H124.6L124.2 91.2Z" fill="#407BFF"/>
<path opacity="0.4" d="M133.9 91.2H125.1L125.5 93H134.3L133.9 91.2Z" fill="#407BFF"/>
<path opacity="0.4" d="M141.8 88.2H117.5L117.9 90.1H142.2L141.8 88.2Z" fill="#407BFF"/>
<path opacity="0.4" d="M160.9 87.6998H152.2L151.8 85.7998H160.5L160.9 87.6998Z" fill="#407BFF"/>
<path opacity="0.4" d="M175.4 87.6998H162L161.6 85.7998H175L175.4 87.6998Z" fill="#407BFF"/>
<path opacity="0.4" d="M181.1 90.6998H152.8L152.5 88.7998H180.7L181.1 90.6998Z" fill="#407BFF"/>
<path opacity="0.4" d="M177.4 93.6998H153.5L153.1 91.7998H177L177.4 93.6998Z" fill="#407BFF"/>
<path opacity="0.4" d="M188.1 75.8999H161L161.4 77.6999H188.5L188.1 75.8999Z" fill="#407BFF"/>
<path opacity="0.4" d="M182.8 72.8999H160.4L160.8 74.7999H183.2L182.8 72.8999Z" fill="#407BFF"/>
<path d="M178.8 69.8999H154L154.4 71.7999H179.1L178.8 69.8999Z" fill="#407BFF"/>
<path opacity="0.4" d="M189.3 105.6H155.9L156.3 107.4H189.7L189.3 105.6Z" fill="#407BFF"/>
<path opacity="0.4" d="M169.1 102.6H155.3L155.7 104.5H169.5L169.1 102.6Z" fill="#407BFF"/>
<path opacity="0.4" d="M184.1 102.6H170.3L170.7 104.5H184.5L184.1 102.6Z" fill="#407BFF"/>
<path opacity="0.4" d="M185.1 99.5999H154.7L155.1 101.5H185.5L185.1 99.5999Z" fill="#407BFF"/>
<path opacity="0.4" d="M184.3 114.5H157.8L158.2 116.3H184.7L184.3 114.5Z" fill="#407BFF"/>
<path opacity="0.4" d="M164.9 111.5H157.2L157.6 113.4H165.3L164.9 111.5Z" fill="#407BFF"/>
<path opacity="0.4" d="M177 111.5H166L166.3 113.4H177.3L177 111.5Z" fill="#407BFF"/>
<path opacity="0.4" d="M187 108.5H156.6L157 110.4H187.4L187 108.5Z" fill="#407BFF"/>
<path opacity="0.4" d="M105.9 116.8H85.2002L85.6002 118.7H106.3L105.9 116.8Z" fill="#407BFF"/>
<path opacity="0.4" d="M99.8001 113.8H84.6001L85.0001 115.7H100.2L99.8001 113.8Z" fill="#407BFF"/>
<path opacity="0.4" d="M116.1 113.8H100.9L101.3 115.7H116.5L116.1 113.8Z" fill="#407BFF"/>
<path opacity="0.4" d="M114.4 110.8H84L84.3 112.7H114.8L114.4 110.8Z" fill="#407BFF"/>
<path d="M347.3 172.7H334.4L335.9 192.1H345.8L347.3 172.7Z" fill="#407BFF"/>
<path opacity="0.4" d="M347.3 172.7H334.4L335.9 192.1H345.8L347.3 172.7Z" fill="white"/>
<path d="M67.4997 159.2H85.8997L79.5997 192.1H61.1997L67.4997 159.2Z" fill="#263238"/>
<path d="M90.9999 150.4H64.8999L72.1999 192.1H98.2999L90.9999 150.4Z" fill="#407BFF"/>
<path d="M63.3999 150.4H64.8999L72.1999 192.1H70.6999L63.3999 150.4Z" fill="#407BFF"/>
<path opacity="0.3" d="M63.3999 150.4H64.8999L72.1999 192.1H70.6999L63.3999 150.4Z" fill="black"/>
<path d="M75.8997 187.6L70.1997 154.8H87.1997L92.9997 187.6H75.8997Z" fill="#1E3851"/>
<path opacity="0.6" d="M92.1999 187.6L86.3999 154.8H87.1999L92.9999 187.6H92.1999Z" fill="#407BFF"/>
</g>
<defs>
<clipPath id="clip0_12_2">
<rect width="414.7" height="376" fill="white"/>
</clipPath>
</defs>
</svg>
