<svg width="807" height="120" viewBox="0 0 807 120" fill="none" xmlns="http://www.w3.org/2000/svg">
<path d="M64.0344 38.729C63.5998 34.3462 61.7344 30.9414 58.4382 28.5146C55.142 26.0877 50.6687 24.8743 45.0181 24.8743C41.1786 24.8743 37.9368 25.4176 35.2926 26.5043C32.6484 27.5547 30.62 29.0217 29.2074 30.9052C27.831 32.7887 27.1428 34.9258 27.1428 37.3164C27.0703 39.3086 27.4869 41.0472 28.3924 42.5323C29.3342 44.0174 30.62 45.3033 32.25 46.3899C33.88 47.4403 35.7635 48.364 37.9006 49.1609C40.0376 49.9215 42.3196 50.5735 44.7465 51.1168L54.7436 53.5075C59.5973 54.5941 64.0526 56.043 68.1094 57.854C72.1662 59.6651 75.6797 61.8928 78.6499 64.5369C81.62 67.1811 83.9201 70.2962 85.5501 73.8821C87.2163 77.468 88.0675 81.5792 88.1037 86.2156C88.0675 93.0252 86.3288 98.9293 82.8878 103.928C79.483 108.89 74.5568 112.748 68.1094 115.501C61.6982 118.217 53.9648 119.576 44.9094 119.576C35.9265 119.576 28.1026 118.199 21.4379 115.446C14.8093 112.694 9.62962 108.619 5.89879 103.222C2.20419 97.7884 0.266335 91.0692 0.0852272 83.0643H22.8505C23.104 86.7951 24.1726 89.9102 26.0561 92.4094C27.9759 94.8725 30.5295 96.7379 33.717 98.0057C36.9407 99.2372 40.581 99.853 44.6378 99.853C48.6222 99.853 52.0813 99.2734 55.0153 98.1143C57.9854 96.9553 60.2855 95.3434 61.9155 93.2788C63.5455 91.2141 64.3604 88.8416 64.3604 86.1612C64.3604 83.6619 63.6179 81.5611 62.1328 79.8587C60.684 78.1562 58.5469 76.7074 55.7216 75.5121C52.9325 74.3168 49.5096 73.2301 45.4528 72.2521L33.3366 69.2095C23.9553 66.9276 16.5479 63.3597 11.1147 58.506C5.68146 53.6523 2.98295 47.1143 3.01918 38.892C2.98295 32.1548 4.77592 26.2688 8.39808 21.234C12.0565 16.1992 17.0732 12.2692 23.4482 9.44389C29.8232 6.6186 37.0675 5.20596 45.1811 5.20596C53.4396 5.20596 60.6477 6.6186 66.8054 9.44389C72.9993 12.2692 77.8168 16.1992 81.2578 21.234C84.6989 26.2688 86.4737 32.1005 86.5824 38.729H64.0344ZM103.493 118V34.5455H126.639V118H103.493ZM115.12 23.7876C111.679 23.7876 108.727 22.6467 106.264 20.3647C103.837 18.0465 102.624 15.2756 102.624 12.0518C102.624 8.86434 103.837 6.12961 106.264 3.84766C108.727 1.52947 111.679 0.370378 115.12 0.370378C118.562 0.370378 121.495 1.52947 123.922 3.84766C126.385 6.12961 127.617 8.86434 127.617 12.0518C127.617 15.2756 126.385 18.0465 123.922 20.3647C121.495 22.6467 118.562 23.7876 115.12 23.7876ZM168.325 6.72727V118H145.18V6.72727H168.325ZM264.67 34.5455L235.494 118H209.414L180.238 34.5455H204.687L222.019 94.2567H222.889L240.166 34.5455H264.67ZM276.515 118V34.5455H299.66V118H276.515ZM288.142 23.7876C284.701 23.7876 281.749 22.6467 279.286 20.3647C276.859 18.0465 275.646 15.2756 275.646 12.0518C275.646 8.86434 276.859 6.12961 279.286 3.84766C281.749 1.52947 284.701 0.370378 288.142 0.370378C291.583 0.370378 294.517 1.52947 296.944 3.84766C299.407 6.12961 300.638 8.86434 300.638 12.0518C300.638 15.2756 299.407 18.0465 296.944 20.3647C294.517 22.6467 291.583 23.7876 288.142 23.7876ZM341.999 119.576C336.674 119.576 331.929 118.652 327.764 116.805C323.598 114.921 320.302 112.15 317.875 108.492C315.485 104.797 314.289 100.197 314.289 94.6914C314.289 90.055 315.141 86.1612 316.843 83.0099C318.545 79.8587 320.864 77.3232 323.798 75.4034C326.732 73.4837 330.064 72.0348 333.795 71.0568C337.562 70.0788 341.51 69.3906 345.639 68.9922C350.493 68.4851 354.405 68.0142 357.375 67.5795C360.345 67.1087 362.5 66.4205 363.841 65.5149C365.181 64.6094 365.851 63.2692 365.851 61.4943V61.1683C365.851 57.7273 364.764 55.065 362.591 53.1815C360.454 51.2979 357.411 50.3562 353.463 50.3562C349.298 50.3562 345.983 51.2798 343.52 53.1271C341.057 54.9382 339.427 57.2202 338.63 59.973L317.223 58.2344C318.31 53.1633 320.447 48.7805 323.635 45.0859C326.822 41.3551 330.933 38.4936 335.968 36.5014C341.039 34.473 346.907 33.4588 353.572 33.4588C358.208 33.4588 362.645 34.0021 366.883 35.0888C371.157 36.1754 374.942 37.8597 378.239 40.1417C381.571 42.4236 384.197 45.3576 386.117 48.9435C388.037 52.4933 388.996 56.7493 388.996 61.7116V118H367.046V106.427H366.394C365.054 109.035 363.261 111.335 361.015 113.327C358.77 115.283 356.071 116.823 352.92 117.946C349.768 119.032 346.128 119.576 341.999 119.576ZM348.627 103.602C352.032 103.602 355.039 102.932 357.647 101.592C360.255 100.215 362.301 98.3679 363.786 96.0497C365.271 93.7315 366.014 91.1055 366.014 88.1715V79.3153C365.289 79.7862 364.293 80.2209 363.026 80.6193C361.794 80.9815 360.4 81.3256 358.842 81.6516C357.284 81.9414 355.727 82.2131 354.169 82.4666C352.612 82.6839 351.199 82.8832 349.931 83.0643C347.215 83.4627 344.842 84.0966 342.814 84.9659C340.786 85.8352 339.21 87.0124 338.087 88.4975C336.964 89.9464 336.403 91.7575 336.403 93.9308C336.403 97.082 337.544 99.4908 339.826 101.157C342.144 102.787 345.078 103.602 348.627 103.602ZM535.87 6.72727V118H515.55L467.14 47.9656H466.325V118H442.799V6.72727H463.445L511.475 76.7074H512.453V6.72727H535.87ZM578.671 119.576C573.346 119.576 568.601 118.652 564.436 116.805C560.27 114.921 556.974 112.15 554.547 108.492C552.157 104.797 550.961 100.197 550.961 94.6914C550.961 90.055 551.813 86.1612 553.515 83.0099C555.217 79.8587 557.536 77.3232 560.469 75.4034C563.403 73.4837 566.736 72.0348 570.467 71.0568C574.234 70.0788 578.182 69.3906 582.311 68.9922C587.165 68.4851 591.077 68.0142 594.047 67.5795C597.017 67.1087 599.172 66.4205 600.512 65.5149C601.853 64.6094 602.523 63.2692 602.523 61.4943V61.1683C602.523 57.7273 601.436 55.065 599.263 53.1815C597.126 51.2979 594.083 50.3562 590.135 50.3562C585.969 50.3562 582.655 51.2798 580.192 53.1271C577.729 54.9382 576.099 57.2202 575.302 59.973L553.895 58.2344C554.982 53.1633 557.119 48.7805 560.306 45.0859C563.494 41.3551 567.605 38.4936 572.64 36.5014C577.711 34.473 583.579 33.4588 590.244 33.4588C594.88 33.4588 599.317 34.0021 603.555 35.0888C607.829 36.1754 611.614 37.8597 614.911 40.1417C618.243 42.4236 620.869 45.3576 622.789 48.9435C624.708 52.4933 625.668 56.7493 625.668 61.7116V118H603.718V106.427H603.066C601.726 109.035 599.933 111.335 597.687 113.327C595.441 115.283 592.743 116.823 589.592 117.946C586.44 119.032 582.8 119.576 578.671 119.576ZM585.299 103.602C588.704 103.602 591.711 102.932 594.319 101.592C596.926 100.215 598.973 98.3679 600.458 96.0497C601.943 93.7315 602.686 91.1055 602.686 88.1715V79.3153C601.961 79.7862 600.965 80.2209 599.697 80.6193C598.466 80.9815 597.071 81.3256 595.514 81.6516C593.956 81.9414 592.399 82.2131 590.841 82.4666C589.284 82.6839 587.871 82.8832 586.603 83.0643C583.887 83.4627 581.514 84.0966 579.486 84.9659C577.457 85.8352 575.882 87.0124 574.759 88.4975C573.636 89.9464 573.075 91.7575 573.075 93.9308C573.075 97.082 574.216 99.4908 576.498 101.157C578.816 102.787 581.75 103.602 585.299 103.602ZM643.625 118V34.5455H666.771V118H643.625ZM655.252 23.7876C651.811 23.7876 648.859 22.6467 646.396 20.3647C643.969 18.0465 642.756 15.2756 642.756 12.0518C642.756 8.86434 643.969 6.12961 646.396 3.84766C648.859 1.52947 651.811 0.370378 655.252 0.370378C658.693 0.370378 661.627 1.52947 664.054 3.84766C666.517 6.12961 667.749 8.86434 667.749 12.0518C667.749 15.2756 666.517 18.0465 664.054 20.3647C661.627 22.6467 658.693 23.7876 655.252 23.7876ZM685.312 118V34.5455H707.371V49.2695H708.349C710.087 44.3796 712.985 40.522 717.042 37.6967C721.099 34.8714 725.952 33.4588 731.603 33.4588C737.326 33.4588 742.198 34.8896 746.218 37.7511C750.239 40.5763 752.919 44.4158 754.26 49.2695H755.129C756.831 44.4883 759.91 40.6669 764.365 37.8054C768.857 34.9077 774.163 33.4588 780.285 33.4588C788.072 33.4588 794.393 35.94 799.247 40.9023C804.137 45.8285 806.582 52.8192 806.582 61.8746V118H783.49V66.4386C783.49 61.8022 782.259 58.3249 779.796 56.0067C777.333 53.6886 774.254 52.5295 770.559 52.5295C766.358 52.5295 763.079 53.8697 760.725 56.5501C758.371 59.1942 757.193 62.6896 757.193 67.0362V118H734.754V65.9496C734.754 61.8565 733.577 58.5966 731.223 56.1697C728.904 53.7429 725.844 52.5295 722.04 52.5295C719.469 52.5295 717.15 53.1815 715.086 54.4854C713.057 55.7532 711.446 57.5462 710.25 59.8643C709.055 62.1463 708.457 64.8267 708.457 67.9055V118H685.312Z" fill="white"/>
</svg>
